<svg preserveAspectRatio="none" width="100%" height="100%" overflow="visible" style="display: block;" viewBox="0 0 79.19 46.14" fill="none" xmlns="http://www.w3.org/2000/svg">
<g id="LogoIcon-faa6b456 1" clip-path="url(#clip0_0_17)">
<path id="Vector" fill-rule="evenodd" clip-rule="evenodd" d="M38.9729 6.11659L39.6074 6.75579L40.2426 6.11659C43.9632 2.37269 48.309 0.12083 52.8515 0.11816C55.3637 0.10458 57.8235 0.84199 59.9188 2.23696C62.0163 3.63344 63.654 5.62587 64.6236 7.96108L64.625 7.96441L64.6264 7.96776C67.098 13.9649 64.7984 20.4569 59.6437 25.6473L39.5968 45.82L19.5605 25.6479C16.7205 22.7899 14.7446 19.6291 13.9113 16.2033C13.1964 13.4188 13.3845 10.477 14.4486 7.80738L14.4567 7.78687L14.4652 7.76651C15.433 5.44852 17.0641 3.47265 19.1511 2.09031C21.2348 0.71017 23.6789 -0.016019 26.1732 0.00371197C30.7736 0.00763397 35.1865 2.30639 38.9729 6.11659ZM24.7352 37.624C24.7372 37.6261 24.7392 37.6282 24.7413 37.6303L33.13 46.1243H12.8093C8.8248 46.1243 5.61677 45.0145 3.3628 43.0427C1.10082 41.0638 -0.00107005 38.3808 -0.00107005 35.7003C-0.00107005 33.2164 0.94432 30.7212 2.89956 28.7873C4.85422 26.8541 7.65871 25.6321 11.1538 25.3454L12.382 25.2447L19.5124 32.2969C19.8133 32.5758 20.2715 33.0442 24.7352 37.624ZM66.8096 25.2602L68.0347 25.3607C71.5298 25.6474 74.3343 26.8694 76.289 28.8026C78.2442 30.7365 79.1896 33.2317 79.1896 35.7156C79.1896 38.396 78.0877 41.0791 75.8257 43.058C73.5718 45.0298 70.3638 46.1396 66.3793 46.1396H46.0345L54.4233 37.6456L54.4358 37.6329L54.9993 37.0546C58.9071 33.0451 59.3608 32.5796 59.6591 32.3055L66.8096 25.2602Z" fill="var(--fill-0, #BF9595)"/>
</g>
<defs>
<clipPath id="clip0_0_17">
<rect width="79.19" height="46.14" fill="white"/>
</clipPath>
</defs>
</svg>
