<svg preserveAspectRatio="none" width="100%" height="100%" overflow="visible" style="display: block;" viewBox="0 0 100 19.8348" fill="none" xmlns="http://www.w3.org/2000/svg">
<g id="group-R5">
<path id="path2" d="M7.45498 0C7.16936 0 6.93643 0.230682 6.93643 0.515173C6.93643 0.799665 6.93643 5.54891 6.93643 5.54891C6.93643 5.83268 7.16859 6.05129 7.45498 6.05129L9.91532 6.06408C10.9318 6.06408 11.9 6.45846 12.6419 7.17372C13.3881 7.8941 13.8049 8.8451 13.8166 9.85286C13.8283 10.8854 13.4321 11.8575 12.7019 12.5909C11.9718 13.3244 10.9977 13.7282 9.95928 13.7282H9.91532C8.90105 13.7166 7.94382 13.3026 7.2188 12.5611C6.49892 11.8248 6.09053 10.8621 6.09053 9.85214V7.37892C6.09053 7.09515 5.86981 6.89174 5.58347 6.89174H0.518502C0.232889 6.89174 0 7.09443 0 7.37892V12.4127C0 12.6965 0.23215 12.943 0.518502 12.943H4.51642C5.05396 12.943 5.40036 12.9351 5.68598 12.9737C6.06533 13.0246 6.31949 13.1323 6.51137 13.3222C6.70325 13.5121 6.8109 13.7653 6.86213 14.1422C6.90095 14.4268 6.93643 14.7702 6.93643 15.305V19.2765C6.93643 19.5602 7.14043 19.8348 7.42682 19.8348H9.96001C11.0973 19.8348 12.2142 19.6017 13.2798 19.2277C17.2513 17.8328 19.92 14.0826 19.92 9.89581C19.92 5.70899 17.2513 1.95877 13.2798 0.563916C12.2142 0.189903 11.0973 0 9.96001 0H7.45571H7.45498Z" fill="var(--fill-0, #E6F59F)"/>
<path id="path3" d="M88.7571 7.07873H88.7299L88.1057 15.0229H86.3953L87.0195 5.19723H89.612L93.1976 12.7928L96.8375 5.19723H99.3757L100 15.0229H98.2901L97.6658 7.07873H97.6387L93.9716 15.0229H92.4377L88.7571 7.07873Z" fill="var(--fill-0, white)"/>
<path id="path4" d="M83.3631 10.8058C83.3631 11.5987 83.241 12.279 82.9967 12.8467C82.7524 13.4053 82.404 13.8648 81.9518 14.2252C81.4991 14.5856 80.947 14.8515 80.2956 15.0226C79.6535 15.1848 78.9293 15.2659 78.1238 15.2659C77.3188 15.2659 76.5903 15.1848 75.9384 15.0226C75.2963 14.8515 74.7486 14.5856 74.2964 14.2252C73.8437 13.8648 73.4952 13.4053 73.2509 12.8467C73.0067 12.279 72.8845 11.5987 72.8845 10.8058V5.19694H74.8121V10.6707C74.8121 11.0761 74.8571 11.4591 74.9478 11.8195C75.0384 12.1709 75.2056 12.4818 75.4499 12.7521C75.6942 13.0224 76.0291 13.2341 76.4546 13.3873C76.8889 13.5405 77.4453 13.6171 78.1238 13.6171C78.8028 13.6171 79.3544 13.5405 79.7799 13.3873C80.2142 13.2341 80.5535 13.0224 80.7978 12.7521C81.042 12.4818 81.2097 12.1709 81.3004 11.8195C81.3905 11.4591 81.4361 11.0761 81.4361 10.6707V5.19694H83.3631V10.8058Z" fill="var(--fill-0, white)"/>
<path id="path5" d="M63.5546 6.84612H59.1431V5.19723H69.8931V6.84612H65.4816V15.0229H63.5546V6.84612Z" fill="var(--fill-0, white)"/>
<path id="path6" d="M54.5196 11.117L52.4568 6.73802L50.3936 11.117H54.5196ZM51.3571 5.19723H53.5561L58.3475 15.0229H56.3114L55.2801 12.7659H49.5924L48.5475 15.0229H46.4978L51.3571 5.19723Z" fill="var(--fill-0, white)"/>
<path id="path7" d="M37.2646 13.3741C38.0881 13.3741 38.7848 13.311 39.3549 13.1848C39.934 13.0587 40.4044 12.8604 40.7664 12.5901C41.1377 12.3198 41.4043 11.9774 41.5676 11.563C41.7392 11.1485 41.8255 10.6529 41.8255 10.0763C41.8255 9.47261 41.7392 8.96805 41.5676 8.56257C41.3956 8.14812 41.1241 7.81474 40.7529 7.56244C40.3908 7.31014 39.9205 7.12993 39.3413 7.02183C38.7622 6.90471 38.07 6.84612 37.2646 6.84612H35.31V13.3741H37.2646ZM33.3826 5.19723H38.1333C38.9115 5.19723 39.64 5.28733 40.3186 5.46753C41.0064 5.63876 41.6035 5.91808 42.1104 6.30551C42.6169 6.68392 43.0153 7.18399 43.3047 7.80572C43.6032 8.41842 43.7525 9.16626 43.7525 10.0493C43.7525 10.8872 43.6168 11.617 43.3454 12.2388C43.074 12.8604 42.694 13.3786 42.2054 13.793C41.7169 14.2075 41.1329 14.5184 40.4543 14.7256C39.7757 14.9238 39.0291 15.0229 38.2147 15.0229H33.3826V5.19723Z" fill="var(--fill-0, white)"/>
</g>
</svg>
